<?xml version="1.0" encoding="utf-8"?>
<!-- Generator: Adobe Illustrator 16.0.0, SVG Export Plug-In . SVG Version: 6.00 Build 0)  -->
<!DOCTYPE svg PUBLIC "-//W3C//DTD SVG 1.1//EN" "http://www.w3.org/Graphics/SVG/1.1/DTD/svg11.dtd">
<svg version="1.1" id="Layer_1" xmlns="http://www.w3.org/2000/svg" xmlns:xlink="http://www.w3.org/1999/xlink" x="0px" y="0px"
	 width="32px" height="32px" viewBox="0 0 32 32" enable-background="new 0 0 32 32" xml:space="preserve">
<g>
	<circle cx="6.372" cy="3.655" r="3.227"/>
	<path d="M11.997,15.492c0.036,0.004,0.063,0.006,0.097,0.006c0.319,0,0.626-0.117,0.866-0.331l3.584-3.186
		c0.539-0.48,0.586-1.307,0.108-1.846c-0.483-0.539-1.313-0.588-1.847-0.108l-2.566,2.279L9.042,8.374l-2.67,3.479l-2.703-3.73
		C2.158,9.161-0.018,11.844,0,18.549c0.003,0.723,0.589,1.327,1.309,1.327H1.31c0.725,0,1.386-0.612,1.385-1.335
		c-0.006-1.954,0.017-3.485,0.566-4.65v4.22c0,0.605,0,1.174,0.306,1.662v10.591c0,0.725,0.613,1.28,1.333,1.28
		c0.723,0,1.332-0.478,1.332-1.33H6.58c0,0.854,0.671,1.33,1.394,1.33c0.722,0,1.392-0.56,1.392-1.28V19.773
		C9.67,19.287,9.67,18.72,9.67,18.109v-4.857l1.418,1.764C11.315,15.292,11.644,15.463,11.997,15.492z"/>
	<path d="M7.955,7.231L7.189,7.553C7.034,7.282,6.748,7.1,6.413,7.1c-0.336,0-0.621,0.18-0.78,0.446L4.867,7.217
		C4.755,7.173,4.655,7.182,4.555,7.251C4.453,7.317,4.42,7.43,4.42,7.551v0.955c0,0.114,0.024,0.222,0.118,0.289
		c0.095,0.068,0.177,0.088,0.286,0.058C5.125,8.759,5.498,8.646,5.711,8.58c0.168,0.2,0.419,0.33,0.702,0.33
		c0.268,0,0.516-0.12,0.683-0.312c0.214,0.067,0.6,0.179,0.906,0.273C8.114,8.903,8.245,8.882,8.34,8.814
		c0.092-0.067,0.171-0.178,0.171-0.291V7.565c0-0.123-0.087-0.235-0.189-0.304C8.223,7.196,8.065,7.183,7.955,7.231z"/>
	<path d="M3.017,7.383v-1.23C2.468,5.454,2.161,4.595,2.161,3.654c0-0.831,0.245-1.601,0.661-2.254
		C1.749,1.955,1.001,3.063,1.001,4.353V9.56C1.612,8.553,2.345,7.861,3.017,7.383z"/>
	<path d="M1.258,20.852c0.323,0.813,0.965,1.467,1.759,1.819v-2.18c-1.037,0.25-1.045,0.387-1.499,0.387
		C1.429,20.878,1.346,20.861,1.258,20.852z"/>
	<path d="M28.579,1.014H9.643c0.459,0.549,0.771,1.221,0.888,2.014H28.58c0.74,0,1.357,0.585,1.357,1.326v15.269
		c0,0.738-0.617,1.352-1.357,1.352H9.976v1.955h18.603c1.841,0,3.312-1.469,3.312-3.308V4.353
		C31.891,2.513,30.42,1.014,28.579,1.014z"/>
	<path d="M17.538,14.082c-0.179,0-0.347,0.033-0.504,0.094l-0.425-0.649c-0.243,0.235-0.485,0.473-0.729,0.714l0.398,0.605
		c-0.101,0.193-0.158,0.414-0.158,0.649c0,0.779,0.632,1.412,1.413,1.412c0.028,0,1.414,0,1.413-1.412
		c0-0.232-0.061-0.45-0.155-0.644l2.604-4.815l2.039,4.558c-0.205,0.244-0.365,0.558-0.332,0.901
		c0.146,1.452,1.416,1.412,1.416,1.412c0.775-0.003,1.407-0.634,1.407-1.412c0-0.131-0.021-0.254-0.057-0.374l0.923-1.219
		c0.131,0.039,0.267,0.066,0.41,0.066c0.794,0,1.438-0.644,1.438-1.438s-0.644-1.438-1.438-1.438s-1.438,0.644-1.438,1.438
		c0,0.288,0.086,0.554,0.231,0.778l-0.745,0.981c-0.214-0.131-0.464-0.211-0.732-0.211c-0.068,0-0.141,0.011-0.209,0.021
		l-1.979-4.43c0.367-0.254,0.605-0.678,0.605-1.159c0-0.78-0.633-1.414-1.412-1.414c-0.778,0-1.414,0.634-1.414,1.414
		c0,0.397,0.166,0.755,0.434,1.012l-2.518,4.646C17.878,14.114,17.711,14.082,17.538,14.082z"/>
	<path d="M10.972,17.984c-0.275,0-0.499,0.211-0.499,0.488c0,0.271,0.224,0.484,0.499,0.484H26.93c0.275,0,0.498-0.214,0.498-0.484
		c0-0.277-0.223-0.488-0.498-0.488H10.972z"/>
	<path d="M13.8,9.273l-1.497-2.28c-0.151-0.231-0.46-0.294-0.69-0.144c-0.229,0.152-0.294,0.462-0.144,0.691l1.544,2.351
		C13.273,9.682,13.536,9.477,13.8,9.273z"/>
</g>
</svg>
