<?xml version="1.0" encoding="utf-8"?>
<!-- Generator: Adobe Illustrator 17.0.0, SVG Export Plug-In . SVG Version: 6.00 Build 0)  -->
<!DOCTYPE svg PUBLIC "-//W3C//DTD SVG 1.1//EN" "http://www.w3.org/Graphics/SVG/1.1/DTD/svg11.dtd">
<svg version="1.1" id="Layer_1" xmlns="http://www.w3.org/2000/svg" xmlns:xlink="http://www.w3.org/1999/xlink" x="0px" y="0px"
	 width="32px" height="32px" viewBox="0 0 32 32" enable-background="new 0 0 32 32" xml:space="preserve">
<g>
	<path d="M6.451,6.792c1.741,0,3.151-1.412,3.151-3.152c0-1.742-1.41-3.153-3.151-3.153c-1.744,0-3.154,1.411-3.154,3.153
		C3.297,5.38,4.707,6.792,6.451,6.792z"/>
	<path d="M7.996,7.133L7.248,7.449C7.095,7.185,6.815,7.006,6.487,7.006c-0.326,0-0.605,0.176-0.761,0.437l-0.747-0.32
		C4.87,7.076,4.753,7.086,4.654,7.152c-0.1,0.065-0.151,0.175-0.151,0.295v0.931c0,0.112,0.045,0.219,0.135,0.284
		C4.729,8.729,4.84,8.749,4.947,8.716C5.241,8.627,5.601,8.516,5.81,8.453c0.163,0.196,0.403,0.324,0.678,0.324
		c0.265,0,0.502-0.12,0.664-0.306c0.211,0.064,0.582,0.175,0.88,0.266C8.139,8.768,8.28,8.748,8.37,8.681
		c0.09-0.066,0.168-0.172,0.168-0.285V7.459c0-0.119-0.086-0.228-0.185-0.294C8.255,7.099,8.104,7.087,7.996,7.133z"/>
	<ellipse cx="26.272" cy="3.349" rx="2.835" ry="2.862"/>
	<path d="M30.33,8.345c-0.607-1.288-2.13-1.834-3.406-1.221c-1.141,0.548-1.693,1.841-1.36,3.029
		c-0.182,0.528-0.493,1.075-0.978,1.412c-0.504,0.349-1.104,0.444-1.851,0.401v-6.15h-2.69V4.91c0-0.49-0.396-0.886-0.886-0.886
		h-3.607c-0.489,0-0.886,0.397-0.886,0.886v0.907h-2.989v5.585L9.085,8.25l-2.62,3.398l-2.65-3.643
		c-1.478,1.016-3.606,3.599-3.587,10.148c0.001,0.706,0.571,1.261,1.274,1.261h0.002c0.706,0,1.302-0.562,1.3-1.268
		c-0.006-1.908,0.055-3.367,0.503-4.506v4.124c0,0.594,0.149,1.147,0.299,1.625v10.345c0,0.707,0.642,1.276,1.345,1.276
		c0.707,0,1.345-0.57,1.345-1.276v-8.789c0,0.004,0.159,0.01,0.227,0.01c0.064,0,0.222-0.006,0.222-0.01v8.789
		c0,0.707,0.565,1.276,1.269,1.276c0.706,0,1.271-0.57,1.271-1.276V19.39c0.149-0.477,0.449-1.031,0.449-1.625v-4.749l1.382,1.724
		c0.149,0.184,0.261,0.318,0.56,0.396v4.579h1.195v9.585c0,0.814,0.659,1.473,1.472,1.473h6.021c0.813,0,1.473-0.659,1.473-1.473
		v-9.585h0.896V15.07c0.149,0.004,0.215,0.008,0.316,0.008c1.268,0,2.376-0.327,3.305-0.98c0.04-0.028,0.082-0.058,0.121-0.087
		c0.12,0.977,0.206,2.166,0.206,3.574c0,0.361,0.075,0.707,0.208,1.02l0.68,11.053c0.054,0.855,0.783,1.504,1.628,1.451
		c0.791-0.049,1.406-0.703,1.439-1.484l0.417-10.225c0.457-0.466,0.741-1.107,0.741-1.814C31.795,11.623,30.479,8.662,30.33,8.345z
		 M21.688,18.667h-8.844h-0.271V15.07c0.149-0.049,0.208-0.109,0.289-0.182l3.515-3.114c0.526-0.468,0.578-1.275,0.11-1.802
		c-0.469-0.526-1.295-0.575-1.823-0.106l-2.091,1.839V6.713h9.115v5.107c-0.448-0.099-0.84-0.232-1.228-0.373
		c-0.797-0.289-1.658,0.13-1.944,0.935c-0.286,0.805,0.104,1.691,0.901,1.98c0.809,0.293,1.673,0.495,2.271,0.608V18.667z"/>
	<path d="M18.644,14.538c-0.372-0.314-0.631-0.652-0.709-1.25h-2.099l0.428,3.138h-2.197v1.195h6.126v-1.195h-1.829L18.644,14.538z"
		/>
</g>
</svg>
