<?xml version="1.0" encoding="utf-8"?>
<!-- Generator: Adobe Illustrator 16.0.0, SVG Export Plug-In . SVG Version: 6.00 Build 0)  -->
<!DOCTYPE svg PUBLIC "-//W3C//DTD SVG 1.1//EN" "http://www.w3.org/Graphics/SVG/1.1/DTD/svg11.dtd">
<svg version="1.1" id="Layer_1" xmlns="http://www.w3.org/2000/svg" xmlns:xlink="http://www.w3.org/1999/xlink" x="0px" y="0px"
	 width="32px" height="32px" viewBox="0 0 32 32" enable-background="new 0 0 32 32" xml:space="preserve">
<g>
	<circle cx="11.458" cy="7.19" r="2.264"/>
	<path d="M13.071,19.242v2.025v5.495H1.941V3.588h11.129v0.938c0.914,0.549,1.49,1.536,1.49,2.663c0,1.125-0.577,2.112-1.49,2.663
		v1.697c0.286-0.061,0.573-0.148,0.894-0.264c0.267-0.095,0.592-0.147,0.818-0.147V2.704c0-0.497-0.339-0.886-0.838-0.886H0.995
		C0.498,1.818,0,2.207,0,2.704v25.067c0,0.496,0.498,0.932,0.995,0.932h12.95c0.499,0,0.838-0.436,0.838-0.932v-6.439v-1.667v-4.063
		c-0.456,0.115-1.141,0.263-1.712,0.354V19.242z"/>
	<polygon points="5.937,22.932 5.937,19.061 5.937,8.208 5.937,4.615 2.968,4.615 2.968,25.49 	"/>
	<path d="M14.302,12.127c-1.006,0.36-2.379,0.669-3.206,0.103c-0.353-0.241-0.572-0.615-0.71-0.979
		c0.107-0.359,0.124-0.744,0.04-1.113c-0.076-0.329-0.227-0.647-0.46-0.92C9.606,8.792,9.117,8.548,8.61,8.481
		C8.152,8.424,7.647,8.51,7.249,8.747v9.997c0.058-0.026,0.081-0.056,0.115-0.086c0.88,1.026,1.766,2.762,1.233,5.366
		c-0.143,0.702,0.313,1.391,1.016,1.534c0.088,0.017,0.178,0.025,0.264,0.025c0.604,0,1.146-0.425,1.273-1.038
		c0.895-4.379-1.204-7.331-2.987-8.731c0.123-0.906,0.373-1.631,0.639-2.182c0.221,0.26,0.485,0.508,0.796,0.725
		c0.756,0.527,1.651,0.787,2.681,0.787c0.562,0,2.336-0.385,2.76-0.521c0.476-0.164,0.715-0.393,0.859-0.674
		c0.179-0.477,0.094-0.976,0.094-0.976C15.846,12.084,14.978,11.884,14.302,12.127z"/>
	<path d="M23.267,16.152c-0.152,0-0.265,0.012-0.265,0.021v0.773h0.206c0.314,0,0.51-0.159,0.51-0.403
		C23.718,16.287,23.556,16.156,23.267,16.152z"/>
	<path d="M30.745,9.352l-3.277,0c-0.168-1.468-0.87-3.168-1.941-3.871c-0.124-0.471-0.533-0.826-1.042-0.826
		S23.566,5.01,23.442,5.48c-1.071,0.703-1.773,2.402-1.941,3.871l-3.277,0c-0.704,0-1.274,0.569-1.274,1.274v13.55
		c0,0.704,0.57,1.273,1.274,1.273h12.521c0.702,0,1.274-0.569,1.274-1.273V10.626C32.02,9.922,31.451,9.352,30.745,9.352z
		 M23.726,6.539c0.197,0.19,0.464,0.31,0.759,0.31s0.562-0.12,0.759-0.31c0.576,0.563,1.072,1.67,1.216,2.813H22.51
		C22.653,8.208,23.149,7.102,23.726,6.539z M20.834,18.486h-0.628v-1.143H19.18v1.143h-0.629v-2.74h0.629v1.026h1.028v-1.026h0.626
		V18.486z M21.919,18.486h-0.628v-2.74h0.628V18.486z M23.795,18.486c-0.048-0.058-0.11-0.303-0.192-0.642
		c-0.074-0.35-0.193-0.443-0.448-0.443h-0.148v1.085h-0.628v-2.741c0.173-0.032,0.483-0.057,0.818-0.057
		c0.411,0,0.69,0.06,0.889,0.217c0.165,0.133,0.263,0.326,0.263,0.581c0,0.354-0.255,0.595-0.483,0.682v0.014
		c0.171,0.077,0.289,0.268,0.36,0.522c0.084,0.313,0.161,0.671,0.214,0.785L23.795,18.486z M25.286,18.486h-0.628v-2.74h0.628
		V18.486z M28.025,18.486h-0.649l-0.592-1.072c-0.163-0.297-0.347-0.655-0.481-0.979l-0.015,0.002
		c0.017,0.364,0.024,0.754,0.024,1.208v0.842h-0.57v-2.74h0.729l0.575,1.003c0.163,0.291,0.328,0.651,0.451,0.939h0.013
		c-0.042-0.345-0.056-0.757-0.056-1.17v-0.771h0.571V18.486z M30.767,18.351c-0.173,0.063-0.554,0.157-0.917,0.157
		c-0.506,0-0.869-0.13-1.123-0.375c-0.255-0.237-0.394-0.602-0.389-1.007c0.004-0.922,0.676-1.447,1.583-1.447
		c0.357,0,0.634,0.068,0.77,0.137l-0.132,0.5c-0.151-0.065-0.341-0.119-0.646-0.119c-0.522,0-0.916,0.295-0.916,0.896
		c0,0.573,0.368,0.909,0.881,0.909c0.143,0,0.26-0.018,0.317-0.042v-0.559h-0.457v-0.456h1.028V18.351z"/>
</g>
</svg>
