<?xml version="1.0" encoding="utf-8"?>
<!-- Generator: Adobe Illustrator 16.0.0, SVG Export Plug-In . SVG Version: 6.00 Build 0)  -->
<!DOCTYPE svg PUBLIC "-//W3C//DTD SVG 1.1//EN" "http://www.w3.org/Graphics/SVG/1.1/DTD/svg11.dtd">
<svg version="1.1" id="Layer_1" xmlns="http://www.w3.org/2000/svg" xmlns:xlink="http://www.w3.org/1999/xlink" x="0px" y="0px"
	 width="32px" height="32px" viewBox="0 0 32 32" enable-background="new 0 0 32 32" xml:space="preserve">
<g>
	<g>
		<circle cx="5.113" cy="7.05" r="2.282"/>
		<path d="M6.922,10.516l-1.766,2.443L3.39,10.516c-0.812,0.556-1.889,1.793-2.359,4.399h8.25
			C8.812,12.309,7.734,11.072,6.922,10.516z"/>
		<path d="M6.234,9.581L5.692,9.806c-0.111-0.19-0.315-0.321-0.551-0.321c-0.236,0-0.439,0.13-0.551,0.318L4.046,9.571
			C3.969,9.537,3.882,9.546,3.811,9.592C3.738,9.641,3.697,9.72,3.697,9.806v0.675c0,0.08,0.036,0.157,0.102,0.205
			c0.065,0.05,0.148,0.062,0.225,0.04c0.213-0.065,0.476-0.144,0.625-0.191c0.117,0.143,0.294,0.234,0.491,0.234
			c0.193,0,0.363-0.087,0.482-0.22c0.153,0.045,0.419,0.126,0.637,0.191c0.077,0.023,0.178,0.009,0.24-0.04
			c0.064-0.048,0.117-0.125,0.117-0.205v-0.68c0-0.087-0.058-0.167-0.128-0.212C6.415,9.555,6.31,9.546,6.234,9.581z"/>
	</g>
	<g>
		<circle cx="26.676" cy="7.05" r="2.282"/>
		<path d="M28.484,10.516l-1.766,2.443l-1.766-2.443c-0.813,0.556-1.89,1.793-2.359,4.399h8.25
			C30.374,12.309,29.297,11.072,28.484,10.516z"/>
		<path d="M27.797,9.581l-0.543,0.225c-0.111-0.19-0.314-0.321-0.551-0.321s-0.439,0.13-0.551,0.318l-0.544-0.232
			c-0.077-0.034-0.164-0.025-0.235,0.021C25.301,9.641,25.26,9.72,25.26,9.806v0.675c0,0.08,0.035,0.157,0.102,0.205
			c0.064,0.05,0.148,0.062,0.225,0.04c0.213-0.065,0.477-0.144,0.625-0.191c0.117,0.143,0.295,0.234,0.491,0.234
			c0.192,0,0.363-0.087,0.481-0.22c0.154,0.045,0.42,0.126,0.638,0.191c0.077,0.023,0.178,0.009,0.239-0.04
			c0.064-0.048,0.117-0.125,0.117-0.205v-0.68c0-0.087-0.058-0.167-0.127-0.212C27.977,9.555,27.872,9.546,27.797,9.581z"/>
	</g>
	<g>
		<circle cx="15.894" cy="7.05" r="2.282"/>
		<path d="M17.703,10.516l-1.766,2.443l-1.766-2.443c-0.812,0.556-1.889,1.793-2.359,4.399h8.25
			C19.593,12.309,18.516,11.072,17.703,10.516z"/>
		<path d="M17.016,9.581l-0.543,0.225c-0.111-0.19-0.314-0.321-0.551-0.321c-0.236,0-0.439,0.13-0.551,0.318l-0.544-0.232
			c-0.077-0.034-0.164-0.025-0.235,0.021c-0.073,0.049-0.114,0.128-0.114,0.214v0.675c0,0.08,0.036,0.157,0.102,0.205
			c0.065,0.05,0.148,0.062,0.225,0.04c0.213-0.065,0.476-0.144,0.625-0.191c0.117,0.143,0.294,0.234,0.491,0.234
			c0.193,0,0.363-0.087,0.482-0.22c0.154,0.045,0.419,0.126,0.637,0.191c0.077,0.023,0.178,0.009,0.239-0.04
			c0.064-0.048,0.117-0.125,0.117-0.205v-0.68c0-0.087-0.058-0.167-0.127-0.212C17.195,9.555,17.091,9.546,17.016,9.581z"/>
	</g>
	<path d="M1.674,15.771c-0.851,0-1.543,0.691-1.543,1.543v1.529h0.967v9.217c0,1.142,0.925,2.064,2.066,2.064h25.628
		c1.142,0,2.065-0.925,2.065-2.064v-9.217h1.013v-1.768c0-0.721-0.585-1.306-1.306-1.306L1.674,15.771L1.674,15.771z"/>
</g>
</svg>
