<?xml version="1.0" encoding="utf-8"?>
<!-- Generator: Adobe Illustrator 17.0.0, SVG Export Plug-In . SVG Version: 6.00 Build 0)  -->
<!DOCTYPE svg PUBLIC "-//W3C//DTD SVG 1.1//EN" "http://www.w3.org/Graphics/SVG/1.1/DTD/svg11.dtd">
<svg version="1.1" id="Layer_1" xmlns="http://www.w3.org/2000/svg" xmlns:xlink="http://www.w3.org/1999/xlink" x="0px" y="0px"
	 width="32px" height="32px" viewBox="0 0 32 32" enable-background="new 0 0 32 32" xml:space="preserve">
<g>
	<circle cx="25.994" cy="5.822" r="2.983"/>
	<path d="M28.493,9.952l-2.499,3.449l-2.47-3.216l-2.957,3.636l-2.372-2.108c-0.498-0.443-1.261-0.398-1.706,0.1
		c-0.441,0.499-0.399,1.263,0.1,1.707l3.313,2.945c0.221,0.198,0.505,0.306,0.8,0.306c0.031,0,0.057-0.001,0.089-0.005
		c0.328-0.026,0.642-0.184,0.851-0.44l1.321-1.631v4.492c0,0.562,0,1.088,0.267,1.537v9.79c0,0.669,0.618,1.177,1.285,1.177
		c0.669,0,1.287-0.436,1.287-1.237h0.321c0,0.801,0.556,1.237,1.224,1.237c0.664,0,1.225-0.508,1.225-1.177v-9.79
		c0.267-0.452,0.267-0.975,0.267-1.537v-3.901c0.534,1.078,0.545,2.504,0.539,4.309c-0.001,0.669,0.625,1.246,1.295,1.246h0.002
		c0.665,0,1.206-0.571,1.209-1.24C31.902,13.403,29.891,10.914,28.493,9.952z"/>
	<path d="M27.385,9.116l-0.707,0.305c-0.148-0.248-0.411-0.414-0.721-0.414c-0.311,0-0.576,0.169-0.718,0.419L24.53,9.128
		c-0.103-0.044-0.238-0.032-0.33,0.029c-0.095,0.063-0.167,0.167-0.167,0.28v0.886c0,0.106,0.065,0.206,0.149,0.269
		c0.087,0.062,0.206,0.082,0.308,0.053c0.282-0.087,0.638-0.192,0.836-0.252c0.153,0.176,0.381,0.288,0.629,0.288
		c0.262,0,0.492-0.12,0.647-0.305c0.198,0.059,0.541,0.165,0.82,0.25c0.102,0.029,0.167,0.011,0.254-0.052
		c0.085-0.062,0.094-0.162,0.094-0.269V9.424c0-0.112-0.017-0.215-0.11-0.278C27.567,9.083,27.489,9.074,27.385,9.116z"/>
	<path d="M0,31.788h18.426V21.642h0.571c0.717,0,1.298-0.581,1.298-1.298v-0.343c0-0.717-0.581-1.298-1.298-1.298H-0.05L0,31.788z"
		/>
	<path d="M14.686,10.701c0-0.935-0.758-1.693-1.693-1.693H3.83c-0.935,0-1.693,0.758-1.693,1.693v7.118h12.55V10.701z
		 M12.284,16.484H4.806v-2.403h7.478V16.484z M12.817,12.746H4.005v-1.069h8.812V12.746z"/>
	<path d="M5.073,3.242c0-0.415,0.323-0.828,0.738-0.828h5.246c0.414,0,0.692,0.413,0.692,0.828v5.046h1.068V2.521
		c0-0.545-0.47-0.908-1.015-0.908H5.026c-0.523,0-1.021,0.346-1.021,0.869v5.807h1.068V3.242z"/>
	<path d="M10.653,3.749H6.302c-0.267,0-0.483,0.268-0.483,0.536c0,0.266,0.216,0.533,0.483,0.533h4.351
		c0.267,0,0.483-0.268,0.483-0.533C11.136,4.016,10.919,3.749,10.653,3.749z"/>
	<path d="M10.653,5.352H6.302c-0.267,0-0.483,0.266-0.483,0.534c0,0.266,0.216,0.534,0.483,0.534h4.351
		c0.267,0,0.483-0.268,0.483-0.534C11.136,5.618,10.919,5.352,10.653,5.352z"/>
	<path d="M10.653,6.954H6.302c-0.267,0-0.483,0.268-0.483,0.534c0,0.268,0.216,0.534,0.483,0.534h4.351
		c0.267,0,0.483-0.266,0.483-0.534C11.136,7.222,10.919,6.954,10.653,6.954z"/>
</g>
</svg>
