<?xml version="1.0" encoding="utf-8"?>
<!-- Generator: Adobe Illustrator 16.0.0, SVG Export Plug-In . SVG Version: 6.00 Build 0)  -->
<!DOCTYPE svg PUBLIC "-//W3C//DTD SVG 1.1//EN" "http://www.w3.org/Graphics/SVG/1.1/DTD/svg11.dtd">
<svg version="1.1" id="Layer_1" xmlns="http://www.w3.org/2000/svg" xmlns:xlink="http://www.w3.org/1999/xlink" x="0px" y="0px"
	 width="32px" height="32px" viewBox="0 0 32 32" enable-background="new 0 0 32 32" xml:space="preserve">
<g>
	<circle cx="23.579" cy="3.972" r="3.881"/>
	<path d="M15.605,24.483v-0.958c0-0.775,0.378-1.524,0.998-2.002v-3.276H13.02c-1.385,0-2.498-1.094-2.498-2.477
		c0-0.226,0.102-0.413,0.102-0.622v-0.887h0.417c0.46-0.665,1.174-0.997,1.979-0.997h3.284c0.036-0.166,0.133-0.221,0.133-0.353
		V4.021c0-0.742-0.685-1.388-1.426-1.388H3.943c-0.742,0-1.293,0.646-1.293,1.388v8.891c0,0.742,0.551,1.35,1.293,1.35h4.521v1.162
		H6.944c-0.667,0-1.208,0.498-1.208,1.329H0.568c-0.344,0-0.576,0.193-0.576,0.539v1.406c0,0.343,0.231,0.546,0.576,0.546h1.749
		v12.624h14.617v-5.686C16.935,26.182,15.605,25.901,15.605,24.483z M5.896,12.268c-0.741,0-1.419-0.529-1.419-1.269V5.936
		c0-0.742,0.678-1.309,1.419-1.309h7.198c0.742,0,1.35,0.567,1.35,1.309v5.063c0,0.74-0.607,1.269-1.35,1.269H5.896z"/>
	<path d="M26.165,8.498H21.03c-3.148,0-3.347,3.151-3.347,3.151s-0.42,2.124-0.77,2.368c-0.107,0.075-0.233,0.129-0.38,0.129h-3.516
		c-0.832,0-1.506,0.662-1.506,1.495c0,0.832,0.674,1.495,1.506,1.495h3.516c0.546,0,1.028,0.001,1.093-0.014l-0.032,3.669h1.997
		v-8.118c0-1.636,1.053-3.51,2.706-3.51h6.123C27.811,8.664,27.022,8.498,26.165,8.498z"/>
	<path d="M30.041,25.057c1.108,0,2.009-0.899,2.009-2.009V12.739c0-1.241-1.051-2.299-2.291-2.299h-6.958
		c-1.241,0-2.211,1.058-2.211,2.299v9.163h-2.243c-0.862,0-1.578,0.663-1.578,1.525v0.566c0,0.587,0.476,1.062,1.063,1.062h4.752
		v1.329h-0.761c0,0-1.897,0.045-1.897,1.809v2.53c0,0.571,0.426,1.036,1,1.036c0.573,0,1.021-0.469,1.021-1.041l-0.016-2.34h3.476
		v2.345c0,0.571,0.505,1.036,1.079,1.036c0.575,0,1.08-0.465,1.08-1.036v-2.53c0-1.917-2.036-1.809-2.036-1.809H24.74v-1.328H30.041
		z"/>
</g>
</svg>
