<?xml version="1.0" encoding="utf-8"?>
<!-- Generator: Adobe Illustrator 16.0.0, SVG Export Plug-In . SVG Version: 6.00 Build 0)  -->
<!DOCTYPE svg PUBLIC "-//W3C//DTD SVG 1.1//EN" "http://www.w3.org/Graphics/SVG/1.1/DTD/svg11.dtd">
<svg version="1.1" id="Layer_1" xmlns="http://www.w3.org/2000/svg" xmlns:xlink="http://www.w3.org/1999/xlink" x="0px" y="0px"
	 width="32px" height="32px" viewBox="0 0 32 32" enable-background="new 0 0 32 32" xml:space="preserve">
<g>
	<path d="M14.31,6.827c0.055,0.015,0.113,0.018,0.17,0.004l1.774-0.389c0.238,0.137,0.46,0.231,0.689,0.293
		c1.686,0.464,3.431-0.531,3.894-2.218c0.462-1.684-0.532-3.429-2.217-3.891c-1.685-0.464-3.431,0.529-3.893,2.214
		c-0.167,0.605-0.146,1.239,0.058,1.843l-0.709,1.662c-0.052,0.121-0.032,0.264,0.053,0.366C14.177,6.769,14.24,6.807,14.31,6.827z
		 M15.498,4.565c-0.194-0.501-0.223-1.032-0.085-1.535c0.358-1.307,1.713-2.078,3.019-1.72c1.307,0.36,2.077,1.713,1.719,3.02
		c-0.358,1.309-1.713,2.078-3.02,1.72c-0.201-0.055-0.402-0.147-0.632-0.288c-0.079-0.05-0.173-0.064-0.263-0.045l-1.234,0.272
		l0.492-1.155C15.531,4.746,15.534,4.653,15.498,4.565z"/>
	<path d="M16.678,3.307l2.275,0.064c0.197,0.006,0.359-0.151,0.365-0.349c0.004-0.195-0.148-0.364-0.344-0.37l-2.277-0.065
		c-0.194-0.004-0.359,0.155-0.365,0.352C16.328,3.136,16.482,3.301,16.678,3.307z"/>
	<path d="M16.645,4.505L18.92,4.57c0.196,0.006,0.357-0.136,0.364-0.332c0.005-0.198-0.149-0.351-0.345-0.355l-2.275-0.065
		c-0.197-0.006-0.36,0.138-0.365,0.335C16.292,4.349,16.448,4.501,16.645,4.505z"/>
	<circle cx="9.322" cy="4.229" r="2.836"/>
	<path d="M14.525,20.361c0.01-2.094-1.587-3.065-2.663-3.209l-0.207-0.014c-0.606,0.002-1.327,0.004-2.053,0.006
		c-0.077-1.561-0.179-3.964-0.173-4.201c0.387,0.181,0.815,0.324,1.284,0.411c1.133,0.205,2.289,0.04,3.461-0.497
		c0.638-0.291,2.458-1.654,2.871-2.029c0.457-0.435,0.609-0.822,0.627-1.217c-0.044-0.633-0.4-1.158-0.4-1.158
		c-0.625-0.937-1.716-0.717-2.359-0.086c-0.959,0.933-2.361,2-3.6,1.783c-0.524-0.092-0.97-0.404-1.315-0.745
		c-0.12-0.885-0.671-1.69-1.539-2.098C7.1,6.674,5.634,7.34,4.85,8.616c-1.081,1.756-1.127,6.399-0.764,9.815
		c0.165,0.954,0.18,1.77,1.477,1.77c0.47,0.025,4.583,0.014,5.877,0.012c0.004,0.021,0.013,0.064,0.011,0.137
		c-0.005,1.183,0.002,5.519,0.005,7.515c0.001,0.567,0.46,1.053,1.028,1.053h1.018c0.273,0,0.534-0.134,0.727-0.328
		s0.301-0.468,0.301-0.741C14.527,25.854,14.521,21.542,14.525,20.361z"/>
	<path d="M3.254,7.345c0-0.851-0.691-1.537-1.54-1.537c-0.85,0-1.542,0.687-1.542,1.537v15.37c0,0.794,0.613,1.434,1.384,1.516
		c0.002,0.004,0.015-0.004,0.016-0.004h0.61v3.613c0,0.566,0.44,1.024,1.004,1.024c0.566,0,1.006-0.459,1.006-1.024v-3.613h3.216
		v3.613c0,0.566,0.439,1.024,1.006,1.024c0.566,0,1.004-0.459,1.004-1.024v-3.613h0.938v-3.082H3.254V7.345z"/>
	<path d="M30.932,17.57c-0.236-1.21-1.007-2.229-2.08-2.787v-1.011h1.476v-6.72l-5.629-2.001V4.124h-2.011v10.185h2.011v-0.536
		h1.071v0.739c-1.34,0.44-2.396,1.674-2.678,3.013H16.59c-0.567,0-1.026,0.507-1.026,1.072c0,0.566,0.459,1.071,1.026,1.071h2.077
		v9.247h11.258V19.67h1.011c0.566,0,1.019-0.482,1.019-1.05C31.953,18.059,31.493,17.576,30.932,17.57z"/>
</g>
</svg>
