<?xml version="1.0" encoding="utf-8"?>
<!-- Generator: Adobe Illustrator 16.0.0, SVG Export Plug-In . SVG Version: 6.00 Build 0)  -->
<!DOCTYPE svg PUBLIC "-//W3C//DTD SVG 1.1//EN" "http://www.w3.org/Graphics/SVG/1.1/DTD/svg11.dtd">
<svg version="1.1" id="Layer_1" xmlns="http://www.w3.org/2000/svg" xmlns:xlink="http://www.w3.org/1999/xlink" x="0px" y="0px"
	 width="32px" height="32px" viewBox="0 0 32 32" enable-background="new 0 0 32 32" xml:space="preserve">
<g>
	<circle cx="12.569" cy="5.834" r="2.617"/>
	<path d="M14.64,9.811l-2.037,2.807l-2.031-2.799c-1.226,0.842-2.99,3.018-2.974,8.457c0.002,0.586,0.475,1.08,1.062,1.08h0.001
		c0.586,0,1.067-0.5,1.065-1.084c-0.005-1.584,0.036-2.829,0.407-3.772v3.423c0,0.493,0.159,0.953,0.371,1.35v8.588
		c0,0.584,0.488,1.061,1.073,1.061c0.502,0,0.915-0.356,1.029-0.824c0.117,0.464,0.528,0.816,1.027,0.816
		c0.585,0,1.073-0.477,1.073-1.061v-8.588c0.212-0.396,0.371-0.856,0.371-1.35v-3.423c0.371,0.944,0.412,2.188,0.407,3.772
		c-0.002,0.584,0.479,1.084,1.065,1.084l0,0c0.588,0,1.061-0.494,1.063-1.08C17.629,12.829,15.866,10.653,14.64,9.811z"/>
	<path d="M13.852,8.736l-0.619,0.259c-0.128-0.218-0.362-0.368-0.633-0.368s-0.504,0.148-0.631,0.363l-0.624-0.265
		c-0.088-0.039-0.197-0.029-0.279,0.024c-0.083,0.056-0.138,0.147-0.138,0.246v0.773c0,0.093,0.05,0.18,0.125,0.235
		c0.074,0.057,0.173,0.072,0.263,0.045c0.243-0.074,0.546-0.165,0.717-0.219c0.136,0.164,0.338,0.27,0.565,0.27
		c0.22,0,0.417-0.1,0.552-0.253c0.176,0.052,0.481,0.145,0.731,0.219c0.087,0.026,0.19,0.01,0.263-0.046
		c0.076-0.055,0.125-0.143,0.125-0.235V9.005c0-0.099-0.055-0.191-0.136-0.244C14.051,8.707,13.941,8.697,13.852,8.736z"/>
	<path d="M2.125,30.533c0,0.826,0.67,1.497,1.497,1.497h18.007c0.827,0,1.497-0.671,1.497-1.497V1.497
		C23.125,0.67,22.456,0,21.629,0H3.622C2.795,0,2.125,0.67,2.125,1.497V30.533z M4.395,2.436h16.46v27.159H4.395V2.436z"/>
	<path d="M27.667,14.806c-0.095-0.121-0.237-0.192-0.392-0.193c-0.152-0.001-0.297,0.068-0.395,0.188l-0.788,0.986
		c-0.118,0.15-0.143,0.355-0.06,0.528s0.258,0.283,0.449,0.283h1.557c0.189,0,0.363-0.107,0.447-0.28
		c0.084-0.171,0.064-0.375-0.053-0.526L27.667,14.806z"/>
	<path d="M26.857,19.557c0.095,0.121,0.238,0.192,0.392,0.193s0.298-0.068,0.394-0.188l0.789-0.986
		c0.119-0.15,0.144-0.356,0.061-0.528c-0.083-0.173-0.26-0.282-0.451-0.282h-1.557c-0.189,0-0.363,0.108-0.447,0.279
		s-0.063,0.375,0.054,0.525L26.857,19.557z"/>
	<path d="M24.671,11.667c-0.59,0-1.067,0.478-1.067,1.068v8.895c0,0.59,0.479,1.068,1.067,1.068h5.183
		c0.59,0,1.067-0.479,1.067-1.068v-8.895c0-0.59-0.478-1.068-1.067-1.068H24.671z M29.754,21.424H24.77V12.94h4.984V21.424z"/>
</g>
</svg>
