<?xml version="1.0" encoding="utf-8"?>
<!-- Generator: Adobe Illustrator 17.0.0, SVG Export Plug-In . SVG Version: 6.00 Build 0)  -->
<!DOCTYPE svg PUBLIC "-//W3C//DTD SVG 1.1//EN" "http://www.w3.org/Graphics/SVG/1.1/DTD/svg11.dtd">
<svg version="1.1" id="Layer_1" xmlns="http://www.w3.org/2000/svg" xmlns:xlink="http://www.w3.org/1999/xlink" x="0px" y="0px"
	 width="32px" height="32px" viewBox="0 0 32 32" enable-background="new 0 0 32 32" xml:space="preserve">
<g>
	<circle cx="12.153" cy="9" r="2.833"/>
	<path d="M15.709,15.174c-1.259,0.451-2.976,0.837-4.012,0.127c-0.439-0.3-0.714-0.769-0.886-1.224
		c0.259-0.852,0.092-1.814-0.527-2.543c-0.97-1.141-2.681-1.279-3.821-0.31c-0.278,0.234-2.019,1.805-3.1,4.861
		c-0.526,0.241-1.161,0.432-1.926,0.523c-0.892,0.104-1.53,0.914-1.427,1.805c0.099,0.828,0.801,1.438,1.615,1.438
		c0.063,0,0.127-0.006,0.19-0.013c0.265-0.03,0.517-0.072,0.762-0.12c-0.05,0.515-0.076,1.053-0.076,1.617
		c0,0.733,0.292,1.398,0.765,1.886c0.31,0.957,0.561,2.276,0.219,3.362c-0.257,0.81-0.818,1.428-1.719,1.886
		c-0.8,0.407-1.118,1.387-0.711,2.188c0.288,0.563,0.857,0.89,1.45,0.89c0.249,0,0.501-0.06,0.736-0.179
		c1.673-0.851,2.83-2.167,3.346-3.808c0.433-1.38,0.369-2.785,0.137-3.974c0.11-0.075,0.216-0.158,0.312-0.247
		c1.102,1.283,2.206,3.454,1.541,6.708c-0.18,0.878,0.389,1.739,1.267,1.919c0.11,0.021,0.222,0.032,0.329,0.032
		c0.755,0,1.434-0.531,1.592-1.3c1.119-5.474-1.506-9.161-3.735-10.913c0.153-1.131,0.465-2.036,0.798-2.728
		c0.277,0.326,0.606,0.634,0.996,0.906c0.944,0.658,2.064,0.986,3.351,0.986c0.701,0,2.92-0.482,3.451-0.652
		c0.596-0.207,0.894-0.493,1.075-0.846c0.223-0.592,0.116-1.218,0.116-1.218C17.638,15.12,16.554,14.869,15.709,15.174z"/>
	<path d="M30.652,13.04h0.237c0.6,0,1.086-0.486,1.086-1.086v-1.019c0-0.6-0.486-1.086-1.086-1.086V7.203
		c0-2.624-2.094-4.75-4.719-4.75c-2.622,0-4.717,2.127-4.717,4.75V9.85h-0.063c-0.602,0-1.092,0.489-1.092,1.092v0.634v1.434v1.17
		c0,0.268,0.207,0.484,0.475,0.484c0.269,0,0.477-0.217,0.477-0.484V13.04h0.442c0.399,1.079,1.198,2.023,2.243,2.582
		c0.394,0.21,0.64,0.622,0.64,1.067v2.529H21.66l0.421-3.144c0.022-0.166-0.028-0.333-0.139-0.459
		c-0.11-0.126-0.269-0.198-0.438-0.198H19.68c-0.169,0-0.331,0.074-0.441,0.203c-0.11,0.129-0.158,0.3-0.132,0.468l0.491,3.131
		h-0.659c-0.373,0-0.676,0.303-0.676,0.676v12.087h11.608V19.895c0-0.373-0.303-0.676-0.676-0.676h-1.428V16.69
		c0-0.447,0.246-0.857,0.64-1.068C29.453,15.064,30.252,14.12,30.652,13.04z"/>
</g>
</svg>
