<?xml version="1.0" encoding="utf-8"?>
<!-- Generator: Adobe Illustrator 16.0.0, SVG Export Plug-In . SVG Version: 6.00 Build 0)  -->
<!DOCTYPE svg PUBLIC "-//W3C//DTD SVG 1.1//EN" "http://www.w3.org/Graphics/SVG/1.1/DTD/svg11.dtd">
<svg version="1.1" id="Layer_1" xmlns="http://www.w3.org/2000/svg" xmlns:xlink="http://www.w3.org/1999/xlink" x="0px" y="0px"
	 width="32px" height="32px" viewBox="0 0 32 32" enable-background="new 0 0 32 32" xml:space="preserve">
<g>
	<circle cx="11.064" cy="5.239" r="2.815"/>
	<path d="M11.209,14.4c1.087,0.353,2.246,0.345,3.471-0.024c0.627-0.191,2.406-1.169,2.997-1.547l1.08,1.397
		c0.099,0.127,0.245,0.193,0.394,0.193c0.106,0,0.213-0.034,0.306-0.104c0.218-0.168,0.258-0.481,0.089-0.697l-1.156-1.497
		c0.088-0.153,0.139-0.309,0.168-0.469c0.041-0.628-0.238-1.192-0.238-1.192c-0.373-0.768-1.104-0.907-1.75-0.692l-0.625-0.81
		c-0.17-0.219-0.483-0.258-0.698-0.09c-0.217,0.168-0.257,0.481-0.089,0.697l0.55,0.711c-1.04,0.719-2.394,1.398-3.475,1.054
		c-0.504-0.159-0.901-0.524-1.193-0.908C11.035,9.535,10.6,8.67,9.802,8.153C8.551,7.346,7.021,7.805,6.079,8.955
		c-1.299,1.584-1.967,6.152-2.065,9.563c0.005-0.002-0.106,1.973,1.471,1.973c0.466,0.023,4.546,0.014,5.832,0.011
		c0.004,0.021,0.012,0.063,0.012,0.134c-0.006,1.176,0,5.442,0.004,7.424c0.001,0.563,0.457,1.01,1.019,1.01h1.01
		c0.273,0,0.531-0.101,0.723-0.291c0.191-0.191,0.299-0.446,0.299-0.717c-0.004-1.98-0.01-6.244-0.006-7.414
		c0.01-2.078-1.574-3.041-2.642-3.186l-0.205-0.012c-0.558,0.002-1.209,0.004-1.874,0.004c0.133-1.506,0.312-3.423,0.346-3.628
		C10.358,14.055,10.761,14.253,11.209,14.4z"/>
	<path d="M3.218,7.729c0-0.843-0.691-1.526-1.534-1.526c-0.843,0-1.536,0.684-1.536,1.526V22.98c0,0.789,0.602,1.439,1.368,1.521
		c0.001,0.005,0.006,0.015,0.008,0.015h0.529v3.551c0,0.563,0.444,1.019,1.005,1.019c0.562,0,1.006-0.454,1.006-1.019v-3.551h3.229
		v3.551c0,0.563,0.443,1.019,1.006,1.019c0.562,0,1.005-0.454,1.005-1.019v-3.551h1.005v-3.067H3.218V7.729z"/>
	<path d="M30.672,17.876c-0.234-1.2-0.994-2.211-2.053-2.765v-0.968h1.482V7.438l-5.559-1.984V4.459h-2.011v10.214h2.011v-0.529
		h1.006v0.697c-1.322,0.438-2.39,1.578-2.67,3.06h-3.156c1.303-0.368,2.256-1.574,2.256-2.999c0-0.023-0.006-0.07-0.006-0.07h-6.216
		c0,0-0.006,0.048-0.006,0.07c0,1.423,0.953,2.629,2.256,2.999h-1.58c-0.561,0-1.019,0.473-1.019,1.031
		c0,0.563,0.457,1.032,1.019,1.032h2.031v9.155h11.219v-9.155h0.985c0.563,0,1.018-0.481,1.018-1.044
		C31.68,18.361,31.227,17.883,30.672,17.876z"/>
</g>
</svg>
