<?xml version="1.0" encoding="utf-8"?>
<!-- Generator: Adobe Illustrator 17.0.0, SVG Export Plug-In . SVG Version: 6.00 Build 0)  -->
<!DOCTYPE svg PUBLIC "-//W3C//DTD SVG 1.1//EN" "http://www.w3.org/Graphics/SVG/1.1/DTD/svg11.dtd">
<svg version="1.1" id="Layer_1" xmlns="http://www.w3.org/2000/svg" xmlns:xlink="http://www.w3.org/1999/xlink" x="0px" y="0px"
	 width="32px" height="32px" viewBox="0 0 32 32" enable-background="new 0 0 32 32" xml:space="preserve">
<g>
	<path d="M31.425,16.408h-4.601c0-0.603-0.461-1.056-1.027-1.056h-1.229v-0.981h3.782c0.631,0,1.123-0.546,1.123-1.177V5.627
		c0-0.632-0.492-1.143-1.123-1.143h-9.416c-0.631,0-1.157,0.511-1.157,1.143v7.566c0,0.056,0.013,0.11,0.021,0.163
		c0.586,0.116,1.136,0.378,1.587,0.765l0.224-0.079c0.725-0.312,1.567-0.201,2.164,0.327h0.91v0.981h-0.194l1.476,3.422
		c0.226,0.519,0.233,1.097,0.024,1.623c-0.209,0.521-0.626,0.935-1.145,1.158l-5.294,2.28v5.479h12.376V18.672h1.5
		c0.292,0,0.539-0.262,0.539-0.555V16.92C31.964,16.626,31.717,16.408,31.425,16.408z M20.58,12.71
		c-0.633,0-1.145-0.512-1.145-1.143V7.288c0-0.632,0.512-1.144,1.145-1.144h6.165c0.631,0,1.143,0.512,1.143,1.144v4.279
		c0,0.631-0.512,1.143-1.143,1.143H20.58z"/>
	<circle cx="11.582" cy="7.296" r="2.699"/>
	<path d="M23.053,20.025c0.108-0.273,0.104-0.578-0.013-0.847l-1.577-3.651c-0.242-0.561-0.894-0.82-1.455-0.577l-0.872,0.377
		c-0.488-0.689-1.299-1.071-2.129-1.028c-0.015-0.061-0.031-0.122-0.053-0.183c-0.29-0.806-1.176-1.227-1.982-0.936
		c-1.199,0.429-2.836,0.798-3.824,0.121c-0.417-0.286-0.679-0.733-0.845-1.167c0.246-0.812,0.087-1.729-0.501-2.424
		C8.877,8.624,7.246,8.492,6.159,9.416c-0.265,0.224-1.925,1.721-2.953,4.634c-0.502,0.229-1.106,0.412-1.837,0.498
		c-0.85,0.1-1.458,0.872-1.358,1.721c0.093,0.79,0.763,1.371,1.536,1.371c0.061,0,0.122-0.005,0.183-0.012
		c0.252-0.029,0.492-0.068,0.727-0.114c-0.047,0.491-0.072,1.004-0.072,1.54c0,0.699,0.277,1.333,0.727,1.798
		c0.295,0.913,0.534,2.169,0.209,3.205c-0.243,0.772-0.779,1.36-1.638,1.797c-0.763,0.388-1.066,1.321-0.678,2.084
		c0.274,0.538,0.817,0.848,1.383,0.848c0.236,0,0.477-0.056,0.702-0.17c1.594-0.81,2.696-2.066,3.188-3.629
		c0.415-1.316,0.352-2.655,0.131-3.788c0.106-0.072,0.206-0.151,0.3-0.237c1.049,1.224,2.101,3.292,1.467,6.393
		c-0.172,0.838,0.37,1.658,1.21,1.83c0.104,0.019,0.208,0.031,0.311,0.031c0.72,0,1.366-0.507,1.519-1.239
		c1.064-5.218-1.438-8.732-3.564-10.402c0.149-1.079,0.445-1.941,0.761-2.601c0.267,0.311,0.582,0.604,0.951,0.863
		c0.9,0.628,1.969,0.941,3.194,0.941c0.668,0,1.384-0.094,2.144-0.28c-0.024,0.24-0.014,0.485,0.035,0.73l-1.219,0.526
		c-0.269,0.117-0.48,0.334-0.59,0.608c-0.108,0.273-0.103,0.577,0.013,0.847l1.577,3.65c0.243,0.561,0.894,0.819,1.454,0.577
		l6.492-2.803C22.731,20.517,22.943,20.298,23.053,20.025z M15.721,16.802c-0.009-0.224,0.035-0.445,0.127-0.645
		c0.057-0.02,0.112-0.038,0.17-0.058c0.384-0.137,0.68-0.412,0.854-0.749c0.47-0.089,0.949,0.067,1.28,0.403L15.721,16.802z"/>
</g>
</svg>
