<?xml version="1.0" encoding="utf-8"?>
<!-- Generator: Adobe Illustrator 17.0.0, SVG Export Plug-In . SVG Version: 6.00 Build 0)  -->
<!DOCTYPE svg PUBLIC "-//W3C//DTD SVG 1.1//EN" "http://www.w3.org/Graphics/SVG/1.1/DTD/svg11.dtd">
<svg version="1.1" id="Layer_1" xmlns="http://www.w3.org/2000/svg" xmlns:xlink="http://www.w3.org/1999/xlink" x="0px" y="0px"
	 width="32px" height="32px" viewBox="0 0 32 32" enable-background="new 0 0 32 32" xml:space="preserve">
<g>
	<circle cx="24.83" cy="3.611" r="3.235"/>
	<path d="M27.54,8.091l-2.71,3.74l-2.678-3.488l-3.206,3.943l-2.572-2.285c-0.54-0.481-1.367-0.432-1.852,0.108
		c-0.478,0.541-0.432,1.369,0.109,1.851l3.594,3.194c0.24,0.214,0.548,0.332,0.868,0.332c0.032,0,0.061-0.001,0.097-0.006
		c0.355-0.028,0.686-0.201,0.913-0.478l1.423-1.769v4.872c0,0.61,0,1.18,0.325,1.668v10.617c0,0.726,0.66,1.28,1.385,1.28
		s1.387-0.499,1.387-1.335h0.349c0,0.836,0.596,1.335,1.32,1.335c0.722,0,1.322-0.555,1.322-1.28V19.773
		c0.325-0.491,0.325-1.058,0.325-1.668v-4.231c0.558,1.169,0.579,2.706,0.573,4.665c-0.001,0.725,0.667,1.341,1.394,1.341h0.001
		c0.722,0,1.309-0.608,1.312-1.334C31.236,11.824,29.056,9.133,27.54,8.091z"/>
	<path d="M26.339,7.184l-0.768,0.33c-0.159-0.268-0.445-0.448-0.781-0.448c-0.337,0-0.624,0.183-0.779,0.454l-0.767-0.323
		c-0.111-0.048-0.268-0.035-0.366,0.031c-0.103,0.068-0.189,0.181-0.189,0.304v0.96c0,0.115,0.078,0.224,0.17,0.292
		c0.095,0.068,0.226,0.089,0.338,0.057c0.306-0.094,0.693-0.207,0.908-0.273c0.167,0.191,0.416,0.312,0.685,0.312
		c0.284,0,0.534-0.13,0.703-0.33c0.213,0.065,0.586,0.179,0.888,0.271c0.11,0.032,0.19,0.012,0.284-0.056
		c0.094-0.068,0.114-0.176,0.114-0.292V7.518c0-0.122-0.028-0.233-0.13-0.301C26.547,7.148,26.452,7.138,26.339,7.184z"/>
	<path d="M11.88,12.47c-0.133-0.132-0.311-0.207-0.498-0.207c-0.186,0-0.366,0.075-0.497,0.207l-2.231,2.232
		c-0.298,0.297-0.777,0.297-1.074,0l-3.464-3.458c-0.106-0.108-0.167-0.254-0.167-0.405c0-0.151,0.061-0.297,0.167-0.404
		l0.684-0.681c0.071-0.07,0.094-0.177,0.054-0.269C4.816,9.391,4.726,9.33,4.626,9.33H1.089c-0.216,0-0.421,0.087-0.571,0.24
		c-0.151,0.153-0.234,0.36-0.231,0.576l0.053,3.473c0.001,0.099,0.062,0.188,0.153,0.226c0.092,0.037,0.197,0.016,0.268-0.055
		l0.805-0.806c0.105-0.108,0.253-0.167,0.402-0.167c0.153-0.001,0.299,0.06,0.407,0.167l5.205,5.204
		c0.142,0.143,0.336,0.223,0.536,0.223c0.201,0,0.395-0.08,0.538-0.223l2.192-2.193c0.142-0.143,0.336-0.222,0.536-0.222
		c0.202,0,0.394,0.08,0.537,0.222l4.023,4.022c0.275,0.275,0.723,0.275,0.996,0l0.748-0.747c0.132-0.132,0.207-0.312,0.207-0.498
		c0-0.186-0.075-0.365-0.207-0.498L11.88,12.47z"/>
</g>
</svg>
