<?xml version="1.0" encoding="utf-8"?>
<!-- Generator: Adobe Illustrator 16.0.0, SVG Export Plug-In . SVG Version: 6.00 Build 0)  -->
<!DOCTYPE svg PUBLIC "-//W3C//DTD SVG 1.1//EN" "http://www.w3.org/Graphics/SVG/1.1/DTD/svg11.dtd">
<svg version="1.1" id="Layer_1" xmlns="http://www.w3.org/2000/svg" xmlns:xlink="http://www.w3.org/1999/xlink" x="0px" y="0px"
	 width="32px" height="32px" viewBox="0 0 32 32" enable-background="new 0 0 32 32" xml:space="preserve">
<g>
	<circle cx="25.208" cy="6.037" r="2.911"/>
	<path d="M27.5,10.531l-2.357,3.075l-2.274-3.135c-1.363,0.936-3.328,3.353-3.308,9.403c0.002,0.651,0.525,1.196,1.181,1.196h0.002
		c0.651,0,1.183-0.551,1.182-1.202c-0.005-1.763,0.054-3.142,0.45-4.193v3.81c0,0.55,0.177,1.062,0.396,1.5v9.557
		c0,0.648,0.556,1.182,1.205,1.182c0.648,0,1.84,0,2.489,0c0.651,0,1.207-0.547,1.207-1.197v-9.744
		c0.179-0.441,0.44-0.953,0.44-1.502v-3.811c0.266,1.055,0.429,2.583,0.421,4.346c0,0.651,0.471,1.195,1.122,1.195l0,0
		c0.647,0,1.217-0.446,1.218-1.095C30.895,13.862,28.867,11.47,27.5,10.531z"/>
	<path d="M26.599,9.266l-0.688,0.288c-0.145-0.242-0.401-0.409-0.704-0.409c-0.304,0-0.563,0.165-0.702,0.404l-0.693-0.295
		c-0.099-0.044-0.217-0.033-0.308,0.026c-0.093,0.062-0.151,0.163-0.151,0.271v0.861c0,0.102,0.055,0.2,0.137,0.262
		c0.084,0.063,0.191,0.08,0.291,0.05c0.271-0.082,0.604-0.185,0.799-0.244c0.148,0.183,0.376,0.3,0.628,0.3
		c0.243,0,0.465-0.112,0.612-0.282c0.195,0.058,0.535,0.162,0.813,0.244c0.097,0.029,0.21,0.012,0.291-0.052
		c0.084-0.061,0.14-0.159,0.14-0.261V9.565c0-0.11-0.061-0.212-0.148-0.271C26.819,9.233,26.698,9.223,26.599,9.266z"/>
	<circle cx="6.66" cy="6.181" r="2.946"/>
	<path d="M14.36,12l-2.342,2.081l-2.92-3.591L6.66,13.665L4.191,10.26c-1.38,0.949-3.366,3.373-3.349,9.494
		c0.003,0.659,0.537,1.188,1.194,1.188h0.001c0.662,0,1.217-0.532,1.216-1.192c-0.006-1.783,0.063-3.157,0.47-4.221v3.853
		c0,0.557,0.182,1.072,0.316,1.52v9.67c0,0.66,0.59,1.189,1.246,1.189c0.66,0,2.149,0,2.809,0c0.658,0,1.245-0.529,1.245-1.189V20.9
		c0.182-0.444,0.362-0.963,0.362-1.52v-4.437l1.278,1.613c0.207,0.254,0.491,0.407,0.816,0.437c0.031,0.003,0.058,0.005,0.088,0.005
		c0.291,0,0.571-0.105,0.79-0.303l3.273-2.909c0.493-0.438,0.534-1.192,0.099-1.685C15.606,11.607,14.852,11.562,14.36,12z"/>
	<path d="M8.106,9.447l-0.7,0.294c-0.141-0.246-0.403-0.414-0.71-0.414c-0.306,0-0.565,0.165-0.712,0.409l-0.698-0.3
		C5.184,9.393,5.06,9.402,4.967,9.464C4.874,9.525,4.812,9.628,4.812,9.739v0.871c0,0.105,0.056,0.204,0.14,0.266
		c0.086,0.062,0.196,0.081,0.297,0.051c0.275-0.083,0.614-0.188,0.81-0.247c0.152,0.183,0.379,0.302,0.638,0.302
		c0.245,0,0.469-0.112,0.62-0.285c0.196,0.059,0.544,0.164,0.823,0.248c0.101,0.03,0.211,0.01,0.297-0.052
		c0.083-0.062,0.136-0.161,0.136-0.266V9.751c0-0.111-0.059-0.214-0.152-0.276C8.327,9.415,8.207,9.403,8.106,9.447z"/>
	<path d="M21.132,4.665C21.132,2.093,19.039,0,16.467,0c-2.572,0-4.666,2.093-4.666,4.665c0,0.923,0.276,1.815,0.801,2.591
		l-0.358,2.636c-0.026,0.195,0.057,0.388,0.218,0.5c0.091,0.063,0.195,0.094,0.301,0.094c0.084,0,0.168-0.02,0.244-0.06l2.367-1.245
		c0.391,0.101,0.743,0.148,1.094,0.148C19.039,9.331,21.132,7.238,21.132,4.665z M16.467,8.283c-0.308,0-0.629-0.052-1.009-0.163
		c-0.131-0.038-0.273-0.024-0.392,0.04l-1.648,0.867l0.249-1.833c0.018-0.135-0.016-0.273-0.099-0.382
		c-0.471-0.636-0.72-1.377-0.72-2.146c0-1.995,1.622-3.617,3.617-3.617c1.995,0,3.617,1.622,3.617,3.617
		C20.084,6.66,18.462,8.283,16.467,8.283z"/>
	<path d="M18.143,3.099H14.79c-0.289,0-0.523,0.24-0.523,0.53s0.234,0.529,0.523,0.529h3.353c0.289,0,0.522-0.239,0.522-0.529
		S18.432,3.099,18.143,3.099z"/>
	<path d="M18.143,4.909H14.79c-0.289,0-0.523,0.218-0.523,0.508c0,0.289,0.234,0.508,0.523,0.508h3.353
		c0.289,0,0.522-0.219,0.522-0.508C18.665,5.127,18.432,4.909,18.143,4.909z"/>
</g>
</svg>
