<?xml version="1.0" encoding="utf-8"?>
<!-- Generator: Adobe Illustrator 16.0.0, SVG Export Plug-In . SVG Version: 6.00 Build 0)  -->
<!DOCTYPE svg PUBLIC "-//W3C//DTD SVG 1.1//EN" "http://www.w3.org/Graphics/SVG/1.1/DTD/svg11.dtd">
<svg version="1.1" id="Layer_1" xmlns="http://www.w3.org/2000/svg" xmlns:xlink="http://www.w3.org/1999/xlink" x="0px" y="0px"
	 width="32px" height="32px" viewBox="0 0 32 32" enable-background="new 0 0 32 32" xml:space="preserve">
<g>
	<circle cx="7.308" cy="6.3" r="2.903"/>
	<path d="M9.578,10.721l-2.271,3.122l-2.271-3.122c-1.36,0.934-3.318,3.346-3.299,9.378c0.002,0.649,0.527,1.195,1.178,1.195h0.002
		c0.649,0,1.184-0.553,1.184-1.203c-0.005-1.757,0.031-3.135,0.454-4.184v3.798c0,0.546,0.14,1.058,0.352,1.495v9.525
		c0,0.649,0.569,1.176,1.217,1.176c0.602,0,1.109-0.459,1.183-1.043c0.073,0.584,0.581,1.043,1.183,1.043
		c0.648,0,1.217-0.526,1.217-1.176v-9.525c0.212-0.438,0.352-0.949,0.352-1.495v-3.798c0.423,1.049,0.459,2.427,0.454,4.184
		c0,0.65,0.535,1.203,1.184,1.203h0.002c0.651,0,1.176-0.546,1.178-1.195C12.896,14.067,10.938,11.655,9.578,10.721z"/>
	<path d="M8.693,9.519L8.007,9.806C7.866,9.564,7.605,9.399,7.304,9.399c-0.301,0-0.558,0.164-0.699,0.403l-0.69-0.293
		C5.817,9.463,5.691,9.475,5.601,9.534C5.508,9.597,5.442,9.697,5.442,9.806v0.858c0,0.103,0.061,0.2,0.144,0.262
		c0.083,0.062,0.195,0.079,0.294,0.05c0.27-0.083,0.606-0.184,0.796-0.244c0.151,0.182,0.376,0.299,0.627,0.299
		c0.245,0,0.465-0.111,0.613-0.281c0.195,0.058,0.535,0.161,0.812,0.243c0.097,0.029,0.218,0.012,0.298-0.051
		c0.085-0.061,0.147-0.159,0.147-0.26V9.817c0-0.109-0.068-0.211-0.159-0.27C8.923,9.487,8.795,9.477,8.693,9.519z"/>
	<circle cx="22.216" cy="2.998" r="2.903"/>
	<path d="M25.251,12.399c0.008-0.354-0.032-0.728,0.174-1.08c0.063-0.062,4.632-6.485,4.632-6.485
		c0.479-0.674,0.319-1.607-0.354-2.085c-0.674-0.477-1.607-0.318-2.085,0.356l-5.323,7.441L16.784,3.21
		c-0.5-0.658-1.438-0.787-2.096-0.288c-0.657,0.5-0.785,1.438-0.286,2.096c0,0,4.401,5.792,4.44,5.839
		c0.221,0.268,0.349,0.598,0.367,0.864c0.088,1.276,0.342,4.99,0.359,5.103l-3.416,2.954c-0.571,0.494-0.685,1.337-0.264,1.963
		l3.095,4.623c0.291,0.43,0.764,0.664,1.244,0.664c0.287,0,0.576-0.084,0.832-0.254c0.687-0.459,0.869-1.39,0.41-2.075l-2.354-3.523
		l3.038-2.622v3.021c0,0.235,0.049,0.468,0.156,0.679l2.551,5.018c0.266,0.519,0.789,0.816,1.334,0.816
		c0.229,0,0.459-0.052,0.677-0.163c0.735-0.375,1.017-1.274,0.642-2.012l-2.402-4.696L25.251,12.399z"/>
	<path d="M23.666,6.217l-0.688,0.287c-0.142-0.241-0.4-0.407-0.703-0.407c-0.3,0-0.558,0.165-0.699,0.403l-0.689-0.294
		c-0.097-0.044-0.222-0.033-0.313,0.026c-0.094,0.062-0.156,0.164-0.156,0.272v0.858c0,0.102,0.059,0.2,0.141,0.262
		c0.084,0.063,0.195,0.08,0.295,0.049c0.268-0.082,0.604-0.184,0.795-0.244c0.151,0.183,0.377,0.3,0.627,0.3
		c0.244,0,0.465-0.111,0.612-0.282c0.195,0.058,0.536,0.162,0.812,0.244C23.797,7.72,23.919,7.702,24,7.639
		c0.084-0.06,0.148-0.159,0.148-0.259V6.516c0-0.111-0.07-0.212-0.16-0.271C23.896,6.184,23.768,6.173,23.666,6.217z"/>
</g>
</svg>
