<?xml version="1.0" encoding="utf-8"?>
<!-- Generator: Adobe Illustrator 16.0.0, SVG Export Plug-In . SVG Version: 6.00 Build 0)  -->
<!DOCTYPE svg PUBLIC "-//W3C//DTD SVG 1.1//EN" "http://www.w3.org/Graphics/SVG/1.1/DTD/svg11.dtd">
<svg version="1.1" id="Layer_1" xmlns="http://www.w3.org/2000/svg" xmlns:xlink="http://www.w3.org/1999/xlink" x="0px" y="0px"
	 width="32px" height="32px" viewBox="0 0 32 32" enable-background="new 0 0 32 32" xml:space="preserve">
<g>
	<circle cx="17.016" cy="3.472" r="3.229"/>
	<path d="M14.428,25.957v4.688c0,0.726,0.611,1.312,1.333,1.312c0.724,0,1.336-0.587,1.336-1.312l0.107-0.01
		c0,0.723,0.604,1.318,1.318,1.318c0.726,0,1.354-0.604,1.354-1.33v-4.797c-0.905,0.408-1.853,0.641-2.875,0.641
		C16.098,26.467,15.245,26.285,14.428,25.957z"/>
	<path d="M17.014,13.018c0.061,0,0.117,0.013,0.178,0.014v-0.006c2.648,0.045,4.926,1.616,5.979,3.876
		c-0.355-5.316-2.252-7.579-3.608-8.512l-2.517,3.46l-2.516-3.46c-1.357,0.933-3.253,3.196-3.609,8.512
		C11.989,14.609,14.316,13.018,17.014,13.018z"/>
	<path d="M18.598,7.054l-0.762,0.319c-0.159-0.269-0.447-0.453-0.781-0.453s-0.622,0.183-0.781,0.447l-0.769-0.326
		c-0.108-0.048-0.261-0.036-0.362,0.029c-0.103,0.068-0.189,0.181-0.189,0.303v0.953c0,0.116,0.079,0.224,0.173,0.292
		c0.092,0.07,0.224,0.088,0.333,0.056c0.301-0.092,0.679-0.206,0.889-0.272c0.17,0.202,0.418,0.332,0.7,0.332
		c0.271,0,0.516-0.124,0.682-0.311c0.219,0.063,0.6,0.179,0.906,0.269c0.105,0.032,0.242,0.012,0.332-0.058
		c0.096-0.066,0.168-0.176,0.168-0.289V7.387c0-0.123-0.08-0.237-0.18-0.303C18.855,7.018,18.707,7.005,18.598,7.054z"/>
	<path d="M17.014,13.979c-3.182,0-5.763,2.582-5.763,5.765c0,3.182,2.581,5.763,5.763,5.763c3.187,0,5.764-2.581,5.764-5.763
		C22.777,16.561,20.195,13.979,17.014,13.979z M17.014,23.87c-2.278,0-4.125-1.851-4.125-4.127c0-2.279,1.849-4.129,4.125-4.129
		c2.279,0,4.129,1.85,4.129,4.129C21.143,22.021,19.293,23.87,17.014,23.87z"/>
	<path d="M17.695,19.645v-0.004h0.004v-0.002v-2.652c0-0.28-0.262-0.511-0.545-0.511s-0.547,0.23-0.547,0.511v3.139
		c0,0.283,0.254,0.52,0.539,0.52h2.479c0.284,0,0.517-0.22,0.517-0.5c0-0.283-0.229-0.5-0.517-0.5H17.695z"/>
</g>
</svg>
